<svg width="85" height="83" viewBox="0 0 85 83" fill="none" xmlns="http://www.w3.org/2000/svg">
<g clip-path="url(#clip0_20_5057)">
<mask id="mask0_20_5057" style="mask-type:luminance" maskUnits="userSpaceOnUse" x="0" y="0" width="85" height="83">
<path d="M85 0H0V83H85V0Z" fill="white"/>
</mask>
<g mask="url(#mask0_20_5057)">
<path d="M12.0615 46.6472C12.0615 46.6472 12.0785 46.6218 12.087 46.6133C12.0785 46.6218 12.07 46.6387 12.0615 46.6472Z" fill="white"/>
<path d="M75.4035 23.5908L74.4515 23.0311V11.8124L71.043 9.879L69.377 8.93774C69.377 8.93774 69.36 8.96318 69.3515 8.98014C69.156 9.25998 68.935 9.52285 68.663 9.74332C68.3655 9.98924 68.0595 10.1928 67.7365 10.3623C67.575 10.4471 67.422 10.5235 67.252 10.5913L70.3715 12.3636L71.9525 13.2624V22.7004L66.691 25.7107V20.8942C67.3455 20.4787 67.779 19.7579 67.779 18.9269C67.779 17.638 66.7335 16.595 65.4415 16.595C64.1495 16.595 63.104 17.638 63.104 18.9269C63.104 19.7579 63.5375 20.4872 64.192 20.8942V32.1214L55.8705 36.9464C55.539 36.7768 55.1735 36.6836 54.7825 36.6836C53.465 36.6836 52.394 37.752 52.394 39.0664C52.394 40.3807 53.465 41.4492 54.7825 41.4492C56.1 41.4492 57.1115 40.4401 57.1625 39.1681L64.192 35.0978V38.9477C63.5375 39.3632 63.104 40.0839 63.104 40.915C63.104 42.2039 64.1495 43.2469 65.4415 43.2469C66.7335 43.2469 67.779 42.2039 67.779 40.915C67.779 40.0839 67.3455 39.3547 66.691 38.9477V28.5684L72.9045 25.0154L80.223 29.2977L71.638 34.199V41.7884C70.9835 42.2039 70.55 42.9247 70.55 43.7557C70.55 45.0446 71.5955 46.0876 72.8875 46.0876C74.1795 46.0876 75.225 45.0446 75.225 43.7557C75.225 42.9247 74.7915 42.1954 74.137 41.7884V35.6321L82.501 30.8495V50.6752H71.9525C71.536 50.0222 70.8135 49.5898 69.9805 49.5898C68.6885 49.5898 67.643 50.6328 67.643 51.9217C67.643 53.2106 68.6885 54.2536 69.9805 54.2536C70.8135 54.2536 71.5445 53.8212 71.9525 53.1682H80.5715L72.046 58.3409V67.7704L65.4585 64.1495V59.0871C66.113 58.6716 66.5465 57.9508 66.5465 57.1198C66.5465 55.8309 65.501 54.7879 64.209 54.7879C62.917 54.7879 61.8715 55.8309 61.8715 57.1198C61.8715 57.9508 62.305 58.6801 62.9595 59.0871V65.6165L71.043 70.0599L54.2895 80.1L49.589 77.1829L58.616 71.8407C58.854 71.9255 59.1175 71.9764 59.381 71.9764C60.673 71.9764 61.7185 70.9333 61.7185 69.6444C61.7185 68.3555 60.673 67.3125 59.381 67.3125C58.089 67.3125 57.0435 68.3555 57.0435 69.6444C57.0435 69.7207 57.0435 69.7971 57.052 69.8734L47.2005 75.699C46.75 75.4192 46.2995 75.1393 45.8575 74.8595C45.7895 75.1393 45.6875 75.4531 45.5515 75.7838C45.322 76.335 45.05 76.7844 44.812 77.1321C45.6025 77.6239 46.3845 78.1072 47.175 78.5991L54.264 82.9916L73.559 71.4252L74.5195 70.8486V59.7146L84.9745 53.3717V29.1874L82.6965 27.8561L75.378 23.5738L75.4035 23.5908Z" fill="white"/>
<path d="M53.0655 12.8215C51.748 12.8215 50.677 13.8899 50.677 15.2043C50.677 16.5186 51.748 17.5871 53.0655 17.5871C54.383 17.5871 55.454 16.5186 55.454 15.2043C55.454 15.1619 55.454 15.1195 55.454 15.0771L63.4015 10.4641C62.9 10.2351 62.458 9.92138 62.101 9.50587C61.863 9.23452 61.625 8.94621 61.3955 8.64941L53.9325 12.9741C53.6605 12.8723 53.3715 12.813 53.0655 12.813V12.8215Z" fill="white"/>
<path d="M67.745 10.3623C67.5835 10.4471 67.4305 10.5234 67.2605 10.5913C67.422 10.5234 67.5835 10.4471 67.745 10.3623Z" fill="white"/>
<path d="M34.1275 1.17864C27.795 0.644408 22.2275 4.8843 21.148 11.1084C20.944 12.2956 20.978 13.5252 20.9015 14.7632C15.7165 13.6524 11.2285 14.8989 7.98995 19.2236C4.76845 23.5144 4.81095 28.1358 7.30145 32.7658C6.37495 33.3678 5.40595 33.8766 4.57295 34.5465C-0.297543 38.4472 -1.31755 45.0615 1.70845 50.0984C1.71695 50.1154 1.73395 50.1324 1.74245 50.1578C2.28645 51.0567 2.95795 51.8961 3.76545 52.6678C3.80795 52.7102 3.84195 52.7441 3.87595 52.778C4.24145 53.1766 4.30945 53.5327 4.17345 54.0839C2.43945 60.9271 7.20795 67.8551 14.2375 68.8048C16.541 69.1186 18.717 68.7455 20.961 67.8551C20.961 68.2282 20.9695 68.5335 20.961 68.8303C20.961 68.9998 20.9525 69.1694 20.961 69.339C20.961 72.0356 21.9045 74.4778 23.409 76.4366C23.9445 77.132 24.548 77.7679 25.2195 78.3361V78.3191C25.3045 77.6916 25.568 77.1913 26.01 76.8267C26.299 76.5808 26.6135 76.4112 26.928 76.3009C26.452 75.8939 26.01 75.436 25.6275 74.9526C23.9785 72.8581 23.2135 70.0937 23.8255 67.3209C23.8425 67.253 23.8595 67.1852 23.8765 67.1258C24.1995 65.8199 24.854 64.5904 25.738 63.5134C24.9985 63.1403 24.3185 62.6739 23.7065 62.1228C22.5335 63.8865 20.757 65.2433 18.5385 65.9047C13.855 67.2954 8.81445 64.7769 7.10595 60.1554C6.44295 58.3577 6.32395 56.5515 6.75745 54.7708C6.87645 54.2705 7.04645 53.7617 7.25895 53.2614C7.39495 52.9307 7.54795 52.6254 7.71795 52.3201C8.95045 50.0815 10.897 48.606 13.4385 47.8174C13.2005 46.944 12.971 46.1214 12.7415 45.265C9.63045 46.1469 7.30145 47.9615 5.60145 50.5987C4.70045 49.878 3.97795 48.8689 3.48495 47.7071C3.47645 47.7156 3.46795 47.7326 3.45945 47.7411C3.45945 47.7411 3.47645 47.7156 3.48495 47.7071C2.59245 45.6296 2.42245 43.0602 3.25545 40.7707C4.27545 37.9724 6.62145 35.8439 9.34145 34.9705C10.217 34.6992 11.1435 34.555 12.1125 34.555C12.4355 34.555 12.7585 34.572 13.073 34.6059H13.09C13.09 34.6059 13.1665 34.6144 13.209 34.6229C16.9745 35.1316 20.91 37.9045 21.539 43.3316C21.556 43.5436 21.5645 43.764 21.5645 43.976C21.5645 45.6974 21.0885 47.3171 20.281 48.7078C18.2325 50.497 17.1955 53.3971 17.782 56.3141L20.3065 55.8053C19.7795 53.1766 21.148 50.5733 23.494 49.7508C25.3385 49.1063 27.54 49.7338 28.968 51.311L30.8805 49.5896C29.019 47.5291 26.333 46.5878 23.783 47.0288C24.038 46.0536 24.1825 45.0275 24.1825 43.9676C24.1825 43.5436 24.157 43.1281 24.1145 42.7126C23.953 40.8555 23.2985 39.1595 22.3635 37.5229C23.681 36.887 24.8625 36.1323 25.891 35.191C26.4775 34.6568 27.013 34.0547 27.489 33.3848L25.2875 31.8839C24.9475 32.3588 24.5735 32.7827 24.1655 33.1728C23.358 33.936 22.423 34.5465 21.403 35.0468C20.876 35.3012 20.502 35.2928 20.0005 34.8603C19.9325 34.8009 19.8645 34.75 19.7965 34.6992L19.7795 34.6822C17.187 32.5368 14.1695 31.6125 10.778 32.0026C10.3105 32.0535 10.047 31.9517 9.80045 31.5617C8.59345 29.6283 8.08345 27.5677 8.32995 25.2781C9.00995 19.071 15.7845 15.2127 21.471 17.8499C21.777 17.994 22.015 18.2993 22.236 18.5791C22.44 18.842 22.627 19.1134 22.8225 19.3847C23.3495 20.1394 23.851 20.9111 24.514 21.5131C25.3215 22.2509 26.1885 22.9123 27.064 23.5737C27.3275 22.7257 27.6675 21.9117 28.0755 21.14C26.418 20.1055 25.109 18.5706 24.3525 16.756C23.6895 15.1448 23.46 13.3047 23.8255 11.3968C24.7435 6.62265 29.1125 3.3749 34 3.82433C37.009 4.10416 39.6015 5.88491 41.089 8.36948C41.191 7.94549 41.3185 7.53847 41.463 7.17384C41.684 6.62265 41.99 6.0969 42.3895 5.57964C40.409 3.1205 37.485 1.45847 34.1615 1.17864H34.1275Z" fill="white"/>
<path d="M57.9615 48.801C57.018 47.0627 55.7685 45.5448 54.2215 44.2559C52.666 42.967 50.898 41.8222 48.926 40.8385C48.0675 40.4061 47.2005 39.9821 46.325 39.5666C45.1945 39.0239 44.064 38.4812 42.9165 37.9469C42.109 37.5569 41.3695 37.1498 40.6725 36.7174C39.27 35.8355 38.1055 34.8603 37.196 33.7918C35.8275 32.1976 35.1475 30.4084 35.1475 28.4326C35.1475 26.9741 35.4025 25.7106 35.921 24.6252C36.4395 23.5483 37.111 22.6494 37.9355 21.9456C38.76 21.2418 39.6695 20.7245 40.681 20.3938C41.6925 20.0631 42.67 19.902 43.6135 19.902C44.557 19.902 45.458 20.0122 46.274 20.2327C47.056 20.4447 47.77 20.7584 48.416 21.1739C49.7335 22.0219 50.8555 23.0989 51.7735 24.4132C52.6915 25.7276 53.448 27.1861 54.0345 28.7803C54.468 29.942 54.8505 31.0783 55.1905 32.1637C55.25 32.3672 55.556 32.3164 55.556 32.1044V20.7415C55.556 20.5464 55.301 20.4871 55.2075 20.6567C54.859 21.2842 54.3575 21.5895 53.72 21.5895C53.159 21.5895 52.5045 21.4453 51.7735 21.1655C51.0425 20.8856 50.2265 20.5634 49.334 20.2157C48.4415 19.8596 47.4725 19.5374 46.4355 19.2321C46.376 19.2151 46.3165 19.1982 46.257 19.1812C45.2795 18.9098 44.2765 18.7742 43.2565 18.7742C42.3725 18.7742 41.5055 18.859 40.6725 19.0201C39.7375 19.1982 38.828 19.478 37.961 19.8681C36.312 20.5973 34.867 21.5979 33.6175 22.8614C32.368 24.1334 31.382 25.6089 30.651 27.3048C29.92 28.9923 29.5545 30.8239 29.5545 32.7997C29.5545 35.3352 30.107 37.4042 31.212 38.9984C32.317 40.5926 33.694 41.9579 35.343 43.0857C36.9835 44.2135 38.76 45.2226 40.664 46.113H40.6725C41.3355 46.4267 41.9815 46.7574 42.6105 47.0966C43.5285 47.5884 44.4125 48.1142 45.271 48.6654C45.5175 48.8265 45.764 48.9791 46.0105 49.1487C46.1125 49.2165 46.2145 49.2929 46.3165 49.3692C47.8295 50.4546 49.1045 51.7266 50.1415 53.202C51.2465 54.7793 51.799 56.789 51.799 59.2312C51.799 60.5964 51.578 61.8599 51.1275 63.0386C50.677 64.2173 50.0395 65.2348 49.2235 66.1082C48.4245 66.9478 47.4555 67.6261 46.2995 68.1349C46.257 68.1519 46.223 68.1688 46.1805 68.1858C45.883 68.313 45.577 68.4232 45.2625 68.525C44.4295 68.7794 43.5455 68.9235 42.6105 68.9575C42.4745 68.9575 42.33 68.9659 42.194 68.9659C41.684 68.9659 41.1995 68.932 40.7235 68.8727C39.389 68.7115 38.1905 68.313 37.111 67.694C35.649 66.846 34.391 65.7182 33.3285 64.3105C32.266 62.9029 31.365 61.3087 30.6085 59.5195C30.039 58.1627 29.546 56.789 29.138 55.4068C29.0785 55.2033 28.7725 55.2457 28.7725 55.4577V67.7957C28.7725 67.9738 28.9935 68.0501 29.104 67.906C29.5375 67.3463 30.158 67.0665 30.957 67.0665C31.4755 67.0665 31.9855 67.1852 32.4785 67.4226C32.9715 67.6601 33.694 67.9653 34.629 68.3384C35.9975 68.949 37.451 69.4238 39.0065 69.7461C39.576 69.8648 40.154 69.9665 40.715 70.0429C41.3525 70.1277 41.9815 70.187 42.602 70.2125C42.9335 70.2294 43.265 70.2379 43.5965 70.2379C44.166 70.2379 44.7185 70.2125 45.2625 70.1701C45.611 70.1446 45.9595 70.1022 46.2995 70.0513C47.617 69.8648 48.8665 69.5426 50.031 69.0762C51.9605 68.3045 53.618 67.2361 55.012 65.8708C56.3975 64.5056 57.4685 62.9114 58.225 61.0797C58.9815 59.2481 59.3555 57.2978 59.3555 55.2287C59.3555 52.6933 58.888 50.5564 57.9445 48.818L57.9615 48.801Z" fill="white"/>
<path d="M69.5129 3.97708C68.9689 2.93407 68.0339 2.11153 66.6909 1.50946C65.6539 1.04308 64.5149 0.695406 63.2824 0.449493C61.8374 0.161181 60.2649 0.00854492 58.5564 0.00854492C57.1029 0.00854492 55.6239 0.110302 54.1279 0.305337C53.4904 0.390135 52.8529 0.483412 52.2154 0.602129C51.5184 0.729325 50.8214 0.881961 50.1159 1.05156C49.8949 1.10244 49.6654 1.16179 49.4444 1.22115C49.0789 1.32291 48.7219 1.43315 48.3819 1.54338C46.9029 2.04369 45.6279 2.68815 44.5569 3.50221C43.6559 4.16363 42.9249 4.85897 42.3724 5.58823C41.9729 6.1055 41.6669 6.63973 41.4459 7.18243C41.3014 7.55554 41.1739 7.95409 41.0719 8.37808C40.7999 9.47197 40.6639 10.7524 40.6639 12.2279V16.2558C40.6639 16.4678 40.6639 16.7391 40.6639 16.9596C40.6639 17.6719 40.6639 18.3757 40.6639 19.088V70.9418C40.6554 72.2647 40.5874 73.4434 40.4939 74.4694C40.4769 74.656 40.4599 74.8001 40.4429 75.0036C40.2899 76.3774 40.0349 77.5221 39.6694 78.4295C39.4824 78.8959 39.2444 79.3114 38.9724 79.659C38.6494 80.083 38.2669 80.4222 37.8164 80.6851C36.9919 81.16 35.8954 81.4059 34.5269 81.4059C34.0509 81.4059 33.6344 81.3295 33.2774 81.1854C32.9459 81.0497 32.6654 80.8547 32.4359 80.5918C31.9599 80.0491 31.5264 79.4386 31.1354 78.7856C31.0164 78.5821 30.8889 78.3786 30.7614 78.192C30.4724 77.7596 30.1664 77.3525 29.8349 76.9794C29.5289 76.6318 29.1379 76.3943 28.6619 76.2671C28.3899 76.1908 28.0839 76.1569 27.7439 76.1569C27.4719 76.1569 27.2084 76.1993 26.9449 76.2841C26.9194 76.2841 26.9024 76.301 26.8854 76.3095C26.5624 76.4198 26.2564 76.5978 25.9674 76.8438C25.5254 77.2084 25.2704 77.7087 25.1769 78.3362V78.3531C25.1599 78.5058 25.1429 78.6584 25.1429 78.8195C25.1429 78.8959 25.1514 78.9722 25.1599 79.0485C25.2364 80.2441 25.8909 81.126 27.1319 81.6857C28.4579 82.2793 30.0559 82.5761 31.9259 82.5761C33.7959 82.5761 35.6319 82.3132 37.5784 81.7875C39.5164 81.2617 41.1484 80.4985 42.4744 79.4979C43.4859 78.7602 44.2679 77.98 44.8459 77.1575C45.1519 76.7166 45.4069 76.2671 45.5854 75.8092C45.7044 75.5209 45.7979 75.2072 45.8914 74.8849C46.1974 73.7741 46.3589 72.4682 46.3674 70.9503C46.3674 53.9399 46.3674 36.9295 46.3674 19.9106V19.0965C46.3674 19.0456 46.3589 18.3927 46.3589 18.3418C46.3589 18.0535 46.3334 16.7137 46.3249 16.4339V14.1782C46.3249 11.965 46.3929 10.0825 46.5289 8.52223C46.5799 7.90321 46.6564 7.34355 46.7499 6.8178C46.8094 6.46165 46.8859 6.12246 46.9624 5.80023C47.8124 3.11214 50.1074 2.53552 50.1074 2.53552C51.2464 2.17089 52.5809 1.99281 54.1364 1.99281C54.5784 1.99281 54.9949 2.03521 55.3774 2.11153C56.3294 2.29808 57.1029 2.72207 57.6809 3.38349C58.4884 4.29931 59.2109 5.31688 59.8654 6.41925L59.8909 6.45317C60.3499 7.24179 60.8599 7.97953 61.3954 8.67487C61.6249 8.96318 61.8544 9.2515 62.1009 9.53133C62.4579 9.93836 62.8999 10.2606 63.4014 10.4895C64.0389 10.7779 64.7784 10.9305 65.6454 10.9305C66.2064 10.9305 66.7419 10.8287 67.2689 10.6167C67.4304 10.5489 67.5919 10.4726 67.7534 10.3878C68.0679 10.2182 68.3739 10.0147 68.6799 9.76876C68.9519 9.53981 69.1814 9.28541 69.3684 9.00558C69.3769 8.9971 69.3854 8.98014 69.3939 8.96318C69.8444 8.27632 70.0739 7.42834 70.0739 6.40229C70.0739 5.49496 69.8869 4.69786 69.5214 3.99404L69.5129 3.97708Z" fill="white"/>
</g>
</g>
<defs>
<clipPath id="clip0_20_5057">
<rect width="85" height="83" fill="white"/>
</clipPath>
</defs>
</svg>
